<?xml version="1.0" encoding="UTF-8" standalone="no"?>
<!-- Created with Inkscape (http://www.inkscape.org/) -->

<svg
   version="1.1"
   id="svg1"
   width="14.697333"
   height="16.509333"
   viewBox="0 0 14.697333 16.509333"
   xmlns="http://www.w3.org/2000/svg"
   xmlns:svg="http://www.w3.org/2000/svg">
  <defs
     id="defs1">
    <clipPath
       clipPathUnits="userSpaceOnUse"
       id="clipPath1">
      <path
         d="M 0,0 H 160.00001 V 47.066669 H 0 Z"
         transform="matrix(49.019608,0,0,-49.019608,-3408.4963,1588.2353)"
         id="path1" />
    </clipPath>
  </defs>
  <g
     id="g1">
    <g
       id="g2">
      <path
         d="m 392,-19 c 112,0 219,51 290,138 2,3 3,7 3,11 0,10 -10,20 -21,20 -6,0 -9,-3 -14,-7 C 590,71 499,29 405,29 240,29 213,215 213,342 c 0,111 33,327 179,327 92,0 210,-95 231,-185 1,-8 9,-13 17,-13 8,0 17,7 17,17 v 200 c 0,9 -9,16 -17,16 -9,0 -18,-7 -18,-16 0,-17 -13,-30 -29,-30 -31,0 -61,9 -89,22 -35,16 -74,24 -112,24 C 176,704 37,556 37,343 37,129 176,-19 392,-19 Z M 285,31 C 140,75 72,196 72,343 72,481 134,600 269,649 196,572 178,444 178,343 178,237 193,99 285,31 Z m 337,536 c -14,21 -32,40 -51,57 8,-1 15,-1 23,-1 6,0 11,1 17,2 3,1 6,2 11,5 z"
         style="fill:#000000;fill-opacity:1;fill-rule:nonzero;stroke:none"
         transform="matrix(0.0204,0,0,-0.0204,0.073325,15.286665)"
         clip-path="url(#clipPath1)"
         id="path2" />
    </g>
  </g>
</svg>
